<svg version="1.1" xmlns="http://www.w3.org/2000/svg" viewBox="-288.7 -1547.2625 6775.474256140425 2465.025"><desc>Created with Snap</desc><defs><linearGradient x1="-288.7" y1="-1547.2625" x2="6486.774256140425" y2="-1547.2625" gradientUnits="userSpaceOnUse" id="linearGradientSkw3o8qh83d7"><stop offset="0%" stop-color="#6252a2"></stop><stop offset="100%" stop-color="#2fbdb6"></stop></linearGradient></defs><g><rect x="-288.7" y="-1547.2625" width="6775.474256140425" height="2465.025" fill="url('#linearGradientSkw3o8qh83d7')"></rect><g transform="matrix(24.3577,0,0,24.3577,4024.1799,-1544.8382)"><g><path d="M74.265,60.41c0.964,2.929,1.401,5.966,1.261,9.015c2.584-0.989,5.013-2.49,7.095-4.572c0.244-0.244,0.41-0.527,0.637-0.78   c0.018-0.341,0.105-0.659,0.105-1.004c0-2.924-0.646-5.691-1.764-8.203C79.522,57.139,77.045,59.022,74.265,60.41z" fill="#ffffff" style=""></path><path d="M54.863,81.605c2.509,1.112,5.276,1.759,8.2,1.759c0.349,0,0.664-0.085,1.004-0.103c0.253-0.227,0.541-0.393,0.781-0.637   c2.08-2.085,3.585-4.516,4.572-7.104c-3.049,0.14-6.086-0.292-9.01-1.257C59.022,77.049,57.137,79.528,54.863,81.605z" fill="#ffffff" style=""></path><path d="M40.588,74.265c-2.925,0.965-5.965,1.396-9.013,1.257c0.988,2.588,2.49,5.023,4.573,7.104   c0.242,0.244,0.528,0.41,0.779,0.637c0.339,0.018,0.661,0.103,1.003,0.103c2.926,0,5.691-0.646,8.202-1.759   C43.861,79.528,41.976,77.049,40.588,74.265z" fill="#ffffff" style=""></path><path d="M26.731,60.41c-2.781-1.388-5.26-3.271-7.337-5.545c-1.112,2.512-1.758,5.279-1.758,8.203c0,0.345,0.085,0.663,0.1,1.004   c0.229,0.253,0.395,0.536,0.639,0.78c2.082,2.082,4.515,3.583,7.098,4.572C25.333,66.376,25.767,63.339,26.731,60.41z" fill="#ffffff" style=""></path><path d="M26.731,40.592c-0.964-2.929-1.398-5.966-1.259-9.016c-2.583,0.989-5.014,2.491-7.098,4.572   c-0.244,0.245-0.41,0.528-0.639,0.781c-0.015,0.341-0.1,0.659-0.1,1.004c0,2.924,0.646,5.69,1.76,8.205   C21.471,43.863,23.95,41.979,26.731,40.592z" fill="#ffffff" style=""></path><path d="M46.132,19.397c-2.511-1.114-5.275-1.76-8.202-1.76c-0.342,0-0.664,0.084-1.003,0.102   c-0.251,0.228-0.537,0.393-0.779,0.638c-2.083,2.08-3.585,4.515-4.573,7.103c3.048-0.14,6.088,0.293,9.013,1.257   C41.976,23.952,43.861,21.475,46.132,19.397z" fill="#ffffff" style=""></path><path d="M60.41,26.736c2.924-0.964,5.961-1.396,9.01-1.257c-0.99-2.588-2.492-5.017-4.572-7.103   c-0.24-0.245-0.528-0.41-0.781-0.638c-0.34-0.018-0.659-0.102-1.004-0.102c-2.924,0-5.691,0.646-8.2,1.76   C57.137,21.475,59.022,23.952,60.41,26.736z" fill="#ffffff" style=""></path><path d="M82.621,36.148c-2.082-2.081-4.511-3.583-7.095-4.572c0.14,3.05-0.297,6.087-1.261,9.016   c2.78,1.388,5.257,3.271,7.334,5.547c1.117-2.515,1.764-5.281,1.764-8.205c0-0.345-0.088-0.663-0.105-1.004   C83.031,36.677,82.865,36.394,82.621,36.148z" fill="#ffffff" style=""></path><path d="M58.228,63.068c0-0.166-0.048-0.319-0.052-0.484c-1.061-0.21-2.09-0.498-3.099-0.834c-0.462,0.921-0.89,1.851-1.469,2.719   c0.113,0.122,0.19,0.267,0.309,0.384c1.143,1.14,2.404,2.069,3.718,2.881C57.993,66.228,58.228,64.683,58.228,63.068z" fill="#ffffff" style=""></path><path d="M43.362,67.733c1.313-0.812,2.574-1.741,3.715-2.881c0.12-0.117,0.199-0.262,0.312-0.384   c-0.581-0.868-1.008-1.798-1.471-2.719c-1.008,0.336-2.038,0.624-3.1,0.834c-0.002,0.165-0.048,0.318-0.048,0.484   C42.771,64.683,43.006,66.228,43.362,67.733z" fill="#ffffff" style=""></path><path d="M36.148,53.922c-1.139,1.14-2.068,2.4-2.88,3.717c1.503,0.355,3.051,0.59,4.663,0.59c0.166,0,0.318-0.044,0.484-0.048   c0.209-1.06,0.495-2.094,0.833-3.102c-0.918-0.463-1.848-0.886-2.716-1.471C36.411,53.726,36.269,53.805,36.148,53.922z" fill="#ffffff" style=""></path><path d="M38.415,42.821c-0.166-0.006-0.319-0.05-0.484-0.05c-1.612,0-3.159,0.236-4.663,0.591c0.812,1.318,1.739,2.578,2.88,3.717   c0.12,0.118,0.262,0.196,0.384,0.314c0.868-0.583,1.797-1.008,2.716-1.471C38.91,44.916,38.625,43.881,38.415,42.821z" fill="#ffffff" style=""></path><path d="M42.771,37.934c0,0.166,0.046,0.318,0.048,0.484c1.062,0.21,2.092,0.498,3.1,0.834c0.462-0.921,0.89-1.851,1.471-2.719   c-0.113-0.123-0.192-0.267-0.312-0.385c-1.141-1.139-2.402-2.066-3.715-2.879C43.006,34.774,42.771,36.319,42.771,37.934z" fill="#ffffff" style=""></path><path d="M57.635,33.27c-1.314,0.812-2.575,1.74-3.718,2.879c-0.118,0.118-0.195,0.262-0.309,0.385   c0.579,0.868,1.007,1.798,1.469,2.719c1.008-0.336,2.038-0.624,3.099-0.834c0.004-0.166,0.052-0.318,0.052-0.484   C58.228,36.319,57.993,34.774,57.635,33.27z" fill="#ffffff" style=""></path><path d="M63.063,42.771c-0.166,0-0.314,0.044-0.48,0.05c-0.209,1.06-0.498,2.095-0.838,3.102c0.921,0.463,1.851,0.888,2.719,1.471   c0.122-0.118,0.266-0.196,0.384-0.314c1.139-1.139,2.067-2.398,2.883-3.717C66.226,43.008,64.678,42.771,63.063,42.771z" fill="#ffffff" style=""></path><path d="M48.074,49.493c-0.035,0.676-0.035,1.339,0,2.012c0.452,0.502,0.921,0.969,1.42,1.423c0.671,0.034,1.335,0.034,2.007,0   c0.5-0.454,0.972-0.926,1.423-1.423c0.035-0.673,0.033-1.336,0-2.008c-0.451-0.502-0.921-0.969-1.42-1.423   c-0.673-0.035-1.34-0.035-2.012,0C48.995,48.528,48.524,48.995,48.074,49.493z" fill="#ffffff" style=""></path><path d="M64.464,53.608c-0.868,0.585-1.798,1.008-2.719,1.471c0.34,1.008,0.628,2.042,0.838,3.102   c0.166,0.004,0.314,0.048,0.48,0.048c1.615,0,3.163-0.234,4.668-0.59c-0.816-1.316-1.745-2.577-2.883-3.717   C64.73,53.805,64.586,53.726,64.464,53.608z" fill="#ffffff" style=""></path><path d="M72.271,55.926c2.583-1.327,4.827-3.173,6.615-5.425c-1.788-2.252-4.031-4.098-6.615-5.425   c-1.091,1.929-2.357,3.784-3.998,5.425C69.914,52.142,71.179,53.996,72.271,55.926z" fill="#ffffff" style=""></path><path d="M62.138,31.245c0.585,2.133,0.925,4.367,0.925,6.688c2.322,0,4.555,0.341,6.689,0.93c0.868-2.745,1.143-5.603,0.82-8.436   C67.74,30.104,64.879,30.375,62.138,31.245z" fill="#ffffff" style=""></path><path d="M50.498,22.11c-2.253,1.794-4.099,4.033-5.424,6.616c1.927,1.096,3.782,2.361,5.424,4.002   c1.644-1.641,3.498-2.906,5.426-4.002C54.597,26.144,52.752,23.904,50.498,22.11z" fill="#ffffff" style=""></path><path d="M37.931,37.934c0-2.321,0.34-4.556,0.927-6.688c-2.74-0.87-5.601-1.141-8.432-0.817c-0.323,2.833-0.05,5.69,0.817,8.436   C33.377,38.274,35.612,37.934,37.931,37.934z" fill="#ffffff" style=""></path><path d="M22.108,50.501c1.794,2.252,4.034,4.098,6.618,5.425c1.091-1.93,2.356-3.784,3.999-5.425   c-1.643-1.641-2.908-3.496-4.001-5.425C26.143,46.403,23.902,48.249,22.108,50.501z" fill="#ffffff" style=""></path><path d="M38.858,69.757c-0.587-2.133-0.927-4.367-0.927-6.688c-2.319,0-4.553-0.341-6.688-0.93   c-0.868,2.745-1.14,5.604-0.817,8.436C33.257,70.896,36.118,70.627,38.858,69.757z" fill="#ffffff" style=""></path><path d="M50.498,78.891c2.255-1.793,4.1-4.032,5.426-6.616c-1.929-1.095-3.782-2.36-5.426-4c-1.642,1.64-3.497,2.905-5.424,4   C46.401,74.858,48.245,77.098,50.498,78.891z" fill="#ffffff" style=""></path><path d="M63.063,63.068c0,2.321-0.34,4.556-0.925,6.688c2.741,0.87,5.602,1.139,8.435,0.817c0.323-2.832,0.048-5.695-0.82-8.436   C67.618,62.728,65.385,63.068,63.063,63.068z" fill="#ffffff" style=""></path><path d="M87.425,44.026c-0.571,2.304-1.457,4.476-2.614,6.475c1.157,1.999,2.043,4.177,2.614,6.475   C88.844,52.771,88.844,48.231,87.425,44.026z" fill="#ffffff" style=""></path><path d="M81.233,29.05c-1.981-4.041-5.244-7.301-9.286-9.282c1.249,2.063,2.147,4.268,2.745,6.541   C76.966,26.907,79.165,27.802,81.233,29.05z" fill="#ffffff" style=""></path><path d="M56.971,13.576c-4.204-1.418-8.742-1.418-12.947,0c2.3,0.571,4.473,1.453,6.473,2.614   C52.5,15.029,54.671,14.147,56.971,13.576z" fill="#ffffff" style=""></path><path d="M29.047,19.768c-4.042,1.981-7.301,5.241-9.284,9.282c2.066-1.248,4.268-2.143,6.541-2.741   C26.904,24.035,27.798,21.831,29.047,19.768z" fill="#ffffff" style=""></path><path d="M13.571,56.973c0.574-2.3,1.458-4.473,2.616-6.472c-1.159-1.999-2.04-4.171-2.616-6.472   C12.158,48.231,12.158,52.771,13.571,56.973z" fill="#ffffff" style=""></path><path d="M19.765,71.952c1.981,4.041,5.24,7.297,9.279,9.282c-1.248-2.068-2.141-4.269-2.741-6.542   C24.031,74.095,21.829,73.2,19.765,71.952z" fill="#ffffff" style=""></path><path d="M44.024,87.426c4.205,1.418,8.746,1.418,12.947,0c-2.3-0.572-4.472-1.453-6.474-2.614   C48.498,85.973,46.324,86.854,44.024,87.426z" fill="#ffffff" style=""></path><path d="M71.952,81.234c4.037-1.985,7.3-5.241,9.281-9.282c-2.068,1.248-4.267,2.143-6.541,2.74   C74.095,76.966,73.2,79.166,71.952,81.234z" fill="#ffffff" style=""></path></g><desc>Created with Snap</desc><defs></defs></g><g><g transform="matrix(0.5,0,0,-0.5,0,0)"><path d="M694 1348L694 1180Q725 1233 760 1279Q796 1325 836 1359Q876 1394 918 1414Q961 1434 1006 1434Q1027 1434 1051 1425Q1076 1416 1097 1395Q1118 1375 1131 1340Q1145 1306 1145 1255L1145 61Q1145 23 1152 -3Q1160 -28 1170 -45Q1181 -62 1194 -72Q1207 -82 1217 -90Q1228 -98 1235 -105Q1243 -112 1243 -123Q1243 -135 1235 -147Q1228 -159 1214 -170Q1201 -180 1182 -187Q1163 -193 1139 -193Q1116 -193 1089 -183Q1063 -173 1040 -148Q1017 -122 1001 -80Q986 -38 985 27L985 1243Q985 1263 979 1267Q973 1272 967 1272Q951 1272 925 1247Q899 1223 868 1183Q838 1143 807 1091Q776 1040 751 985Q726 930 710 876Q694 823 694 780L694 -10Q694 -36 677 -47Q660 -57 637 -57Q619 -57 601 -52Q583 -47 568 -39Q554 -31 544 -21Q535 -10 535 2L535 1274Q466 1265 404 1235Q343 1205 297 1153Q252 1101 225 1027Q199 953 199 856Q199 794 212 744Q225 695 243 660Q261 626 279 607Q297 588 307 588Q316 588 324 592Q332 596 340 596Q356 596 356 571Q356 545 346 520Q337 496 321 477Q305 459 285 447Q266 436 246 436Q220 436 184 468Q148 500 115 556Q83 612 60 689Q37 766 37 856Q37 964 63 1049Q89 1135 132 1199Q176 1263 234 1308Q292 1353 356 1381Q420 1409 486 1421Q552 1434 612 1434Q628 1434 643 1427Q658 1421 669 1409Q680 1398 687 1382Q694 1366 694 1348ZM2083 338Q2085 350 2096 358Q2108 366 2123 369Q2138 372 2154 369Q2171 366 2183 355Q2196 345 2201 326Q2207 308 2200 279Q2191 237 2170 200Q2150 164 2119 136Q2088 108 2046 92Q2004 76 1952 76Q1924 76 1899 79Q1875 82 1852 90Q1814 24 1754 -17Q1694 -57 1606 -57Q1528 -57 1472 -27Q1416 4 1379 56Q1342 109 1324 178Q1307 247 1307 324Q1307 437 1333 526Q1360 616 1395 678Q1430 741 1464 774Q1499 807 1516 807Q1536 807 1552 789Q1569 772 1576 748Q1584 725 1580 701Q1577 677 1557 664Q1545 645 1528 620Q1512 595 1497 557Q1483 520 1473 466Q1463 412 1463 336Q1463 271 1474 223Q1486 175 1506 142Q1527 110 1553 94Q1580 78 1610 78Q1654 78 1682 99Q1711 121 1731 156Q1659 218 1621 313Q1584 409 1584 520Q1584 568 1594 611Q1605 655 1625 688Q1646 721 1677 740Q1708 760 1749 760Q1785 760 1817 734Q1849 708 1873 662Q1897 616 1910 553Q1924 490 1924 416Q1924 359 1917 303Q1910 247 1895 195Q1906 191 1915 190Q1925 190 1936 190Q1969 190 1994 202Q2020 214 2038 234Q2056 254 2067 281Q2078 308 2083 338ZM1692 528Q1692 459 1713 397Q1735 335 1770 289Q1776 338 1776 383Q1776 435 1774 479Q1773 524 1767 556Q1762 588 1752 606Q1743 625 1727 625Q1692 625 1692 528ZM2833 338Q2835 350 2846 358Q2858 366 2873 369Q2888 372 2904 369Q2921 366 2933 355Q2946 345 2951 326Q2957 308 2950 279Q2941 237 2920 200Q2900 164 2869 136Q2838 108 2796 92Q2754 76 2702 76Q2674 76 2649 79Q2625 82 2602 90Q2564 24 2504 -17Q2444 -57 2356 -57Q2278 -57 2222 -27Q2166 4 2129 56Q2092 109 2074 178Q2057 247 2057 324Q2057 437 2083 526Q2110 616 2145 678Q2180 741 2214 774Q2249 807 2266 807Q2286 807 2302 789Q2319 772 2326 748Q2334 725 2330 701Q2327 677 2307 664Q2295 645 2278 620Q2262 595 2247 557Q2233 520 2223 466Q2213 412 2213 336Q2213 271 2224 223Q2236 175 2256 142Q2277 110 2303 94Q2330 78 2360 78Q2404 78 2432 99Q2461 121 2481 156Q2409 218 2371 313Q2334 409 2334 520Q2334 568 2344 611Q2355 655 2375 688Q2396 721 2427 740Q2458 760 2499 760Q2535 760 2567 734Q2599 708 2623 662Q2647 616 2660 553Q2674 490 2674 416Q2674 359 2667 303Q2660 247 2645 195Q2656 191 2665 190Q2675 190 2686 190Q2719 190 2744 202Q2770 214 2788 234Q2806 254 2817 281Q2828 308 2833 338ZM2442 528Q2442 459 2463 397Q2485 335 2520 289Q2526 338 2526 383Q2526 435 2524 479Q2523 524 2517 556Q2512 588 2502 606Q2493 625 2477 625Q2442 625 2442 528ZM3057 522Q3057 584 3070 629Q3084 675 3108 704Q3132 734 3163 748Q3195 762 3231 762Q3272 762 3311 742Q3350 722 3380 681Q3411 640 3429 577Q3448 514 3448 428Q3448 368 3440 308Q3433 249 3417 195Q3428 191 3438 190Q3449 190 3460 190Q3493 190 3518 202Q3544 214 3562 234Q3581 254 3592 281Q3603 308 3608 338Q3610 350 3621 358Q3633 366 3648 369Q3663 372 3679 369Q3696 366 3708 355Q3720 345 3725 326Q3731 308 3725 279Q3716 237 3695 200Q3675 164 3644 136Q3613 108 3571 92Q3529 76 3477 76Q3449 76 3423 79Q3397 82 3372 90Q3334 24 3273 -17Q3212 -57 3122 -57Q3051 -57 2997 -32Q2944 -7 2907 38Q2871 84 2852 147Q2834 210 2834 285L2834 1262Q2834 1284 2830 1297Q2827 1310 2823 1317Q2820 1325 2816 1329Q2813 1334 2813 1339Q2813 1345 2819 1349Q2825 1353 2835 1356Q2845 1359 2856 1360Q2868 1362 2879 1362Q2930 1362 2959 1335Q2989 1309 2989 1272L2989 313Q2989 262 2998 219Q3007 176 3025 144Q3043 113 3070 95Q3098 78 3135 78Q3173 78 3200 97Q3227 117 3245 150Q3201 181 3166 222Q3132 264 3107 312Q3083 361 3070 414Q3057 468 3057 522ZM3184 530Q3184 456 3210 390Q3237 324 3282 276Q3288 312 3290 347Q3292 383 3292 412Q3292 515 3270 571Q3249 627 3221 627Q3201 627 3192 600Q3184 574 3184 530ZM3724 281Q3716 249 3694 241Q3672 234 3650 243Q3629 252 3614 274Q3600 296 3606 322Q3621 390 3649 472Q3678 555 3706 637Q3691 660 3682 683Q3673 707 3673 733Q3673 759 3692 787Q3712 816 3739 840Q3767 864 3796 879Q3826 895 3847 895Q3884 895 3902 870Q3921 845 3921 803Q3921 780 3913 757Q3906 735 3897 715Q3888 696 3880 682Q3873 668 3872 664Q3908 600 3947 551Q3986 502 4018 454Q4051 406 4072 352Q4093 298 4093 225Q4093 207 4090 188Q4088 169 4083 152Q4119 159 4146 174Q4174 189 4194 208Q4215 228 4228 251Q4242 274 4251 299Q4262 328 4273 341Q4284 354 4298 354Q4311 354 4324 345Q4338 337 4348 324Q4359 311 4365 297Q4372 283 4372 272Q4372 257 4364 236Q4356 215 4342 193Q4329 171 4312 150Q4295 130 4277 115Q4229 76 4164 49Q4099 23 4003 16Q3966 -16 3915 -37Q3865 -57 3802 -57Q3770 -57 3736 -49Q3703 -41 3672 -29Q3642 -16 3617 -1Q3592 14 3577 29Q3539 65 3528 101Q3517 138 3522 167Q3528 196 3544 214Q3560 233 3577 233Q3587 233 3608 224Q3630 216 3658 202Q3686 189 3719 174Q3752 159 3785 145Q3818 132 3849 123Q3881 115 3907 115Q3924 135 3938 168Q3952 201 3952 240Q3952 288 3939 329Q3926 370 3905 405Q3884 440 3857 470Q3831 501 3804 528Q3780 469 3762 411Q3744 354 3724 281ZM5054 -74Q4989 -74 4946 -60Q4903 -45 4878 -27Q4853 -9 4843 7Q4833 24 4833 29Q4833 47 4841 67Q4849 88 4861 105Q4873 123 4887 135Q4901 147 4912 147Q4926 147 4935 129Q4937 127 4945 119Q4953 111 4967 102Q4982 94 5003 87Q5025 80 5054 80Q5117 80 5157 118Q5197 157 5197 223Q5197 269 5175 305Q5154 341 5119 372Q5084 403 5039 432Q4994 462 4947 494Q4900 526 4855 563Q4810 600 4775 648Q4740 696 4718 756Q4697 817 4697 895Q4697 962 4720 1030Q4743 1098 4783 1159Q4824 1221 4879 1274Q4934 1328 4998 1367Q5062 1407 5131 1429Q5201 1452 5271 1452Q5331 1452 5379 1433Q5427 1414 5460 1379Q5493 1345 5511 1296Q5529 1248 5529 1188Q5529 1131 5509 1076Q5489 1021 5456 972Q5423 923 5381 881Q5340 840 5296 809Q5253 779 5212 762Q5171 745 5140 745Q5113 745 5091 757Q5070 770 5055 788Q5041 807 5033 827Q5025 848 5025 864Q5025 877 5028 881Q5032 885 5038 884Q5045 884 5055 881Q5065 879 5078 879Q5120 879 5171 908Q5222 937 5267 982Q5312 1027 5342 1081Q5373 1135 5373 1186Q5373 1238 5347 1268Q5322 1298 5261 1298Q5223 1298 5178 1283Q5134 1269 5089 1243Q5044 1217 5002 1180Q4960 1143 4928 1098Q4896 1054 4876 1002Q4857 951 4857 895Q4857 836 4878 789Q4900 743 4935 705Q4971 667 5016 635Q5061 603 5108 571Q5155 540 5200 506Q5245 473 5280 432Q5316 392 5337 342Q5359 293 5359 229Q5359 167 5335 111Q5312 56 5271 15Q5230 -26 5174 -50Q5118 -74 5054 -74ZM5375 963Q5398 961 5426 960Q5450 958 5484 957Q5518 957 5560 956L5560 1303Q5560 1325 5556 1338Q5553 1351 5549 1358Q5546 1366 5542 1370Q5539 1375 5539 1380Q5539 1386 5545 1390Q5551 1394 5561 1397Q5571 1400 5582 1401Q5594 1403 5605 1403Q5656 1403 5685 1376Q5715 1350 5715 1313L5715 954Q5809 954 5913 956Q6018 958 6123 963Q6137 978 6145 974Q6154 970 6156 955Q6159 940 6157 918Q6155 896 6149 875Q6143 855 6132 840Q6122 825 6109 825Q5986 822 5891 821Q5797 821 5715 821L5715 172Q5715 122 5734 100Q5753 78 5785 78Q5816 78 5838 100Q5861 122 5877 155Q5894 188 5904 226Q5915 265 5922 299Q5928 331 5942 345Q5956 360 5971 360Q5983 360 5996 352Q6009 345 6019 333Q6030 321 6036 306Q6043 291 6043 276Q6043 274 6043 271Q6043 268 6041 262Q6028 211 6005 155Q5983 99 5947 52Q5912 5 5863 -26Q5814 -57 5748 -57Q5707 -57 5672 -45Q5638 -32 5613 -5Q5588 23 5574 66Q5560 109 5560 170L5560 821Q5526 821 5499 821Q5473 822 5455 823Q5434 824 5418 825Q5394 825 5375 846Q5357 868 5349 894Q5342 920 5347 941Q5353 963 5375 963ZM6680 338Q6682 350 6693 358Q6705 366 6720 369Q6735 372 6751 369Q6768 366 6780 355Q6793 345 6798 326Q6804 308 6797 279Q6788 237 6767 200Q6747 164 6716 136Q6685 108 6643 92Q6601 76 6549 76Q6521 76 6496 79Q6472 82 6449 90Q6411 24 6351 -17Q6291 -57 6203 -57Q6125 -57 6069 -27Q6013 4 5976 56Q5939 109 5921 178Q5904 247 5904 324Q5904 437 5930 526Q5957 616 5992 678Q6027 741 6061 774Q6096 807 6113 807Q6133 807 6149 789Q6166 772 6173 748Q6181 725 6177 701Q6174 677 6154 664Q6142 645 6125 620Q6109 595 6094 557Q6080 520 6070 466Q6060 412 6060 336Q6060 271 6071 223Q6083 175 6103 142Q6124 110 6150 94Q6177 78 6207 78Q6251 78 6279 99Q6308 121 6328 156Q6256 218 6218 313Q6181 409 6181 520Q6181 568 6191 611Q6202 655 6222 688Q6243 721 6274 740Q6305 760 6346 760Q6382 760 6414 734Q6446 708 6470 662Q6494 616 6507 553Q6521 490 6521 416Q6521 359 6514 303Q6507 247 6492 195Q6503 191 6512 190Q6522 190 6533 190Q6566 190 6591 202Q6617 214 6635 234Q6653 254 6664 281Q6675 308 6680 338ZM6289 528Q6289 459 6310 397Q6332 335 6367 289Q6373 338 6373 383Q6373 435 6371 479Q6370 524 6364 556Q6359 588 6349 606Q6340 625 6324 625Q6289 625 6289 528ZM7127 -57Q7091 -57 7053 -46Q7016 -35 6985 -8Q6955 19 6935 63Q6916 108 6916 176Q6916 275 6942 385Q6969 496 7019 629L6863 629L6840 629Q6839 599 6836 553Q6834 507 6828 455Q6822 403 6812 350Q6803 297 6789 252Q6779 220 6757 215Q6736 210 6715 222Q6694 235 6681 259Q6668 283 6675 309Q6683 340 6689 384Q6695 429 6698 478Q6702 528 6704 577Q6706 627 6707 666Q6669 687 6644 719Q6619 752 6619 797Q6619 818 6627 835Q6636 853 6650 865Q6664 878 6683 884Q6702 891 6722 891Q6740 891 6759 886Q6779 881 6796 868Q6814 855 6828 834Q6842 813 6851 782Q6876 779 6893 777Q6911 776 6923 775Q6935 774 6943 774Q6951 774 6959 774L7066 774Q7075 774 7092 763Q7110 752 7127 734Q7144 717 7155 697Q7167 677 7164 659Q7164 653 7157 630Q7150 607 7140 572Q7130 537 7118 491Q7106 446 7096 396Q7086 346 7079 292Q7072 239 7072 188Q7072 167 7077 147Q7082 127 7092 111Q7102 96 7117 87Q7133 78 7154 78Q7189 78 7214 100Q7239 122 7256 155Q7273 188 7283 226Q7294 265 7301 299Q7307 331 7321 345Q7335 360 7350 360Q7362 360 7375 352Q7388 345 7398 333Q7409 321 7415 306Q7422 291 7422 276Q7422 271 7421 268Q7420 265 7420 262Q7406 211 7383 155Q7361 99 7326 52Q7291 5 7242 -26Q7193 -57 7127 -57ZM7781 596Q7781 539 7761 479Q7742 419 7703 365Q7665 312 7608 269Q7552 227 7478 205Q7488 179 7504 155Q7521 132 7544 115Q7567 98 7597 88Q7628 78 7668 78Q7728 78 7771 100Q7814 123 7843 160Q7873 197 7891 243Q7909 289 7918 336Q7925 370 7946 381Q7968 393 7990 387Q8013 381 8029 361Q8046 342 8043 315Q8039 284 8029 244Q8020 204 8001 163Q7982 122 7952 82Q7923 43 7880 12Q7837 -19 7779 -38Q7721 -57 7646 -57Q7576 -57 7510 -30Q7445 -2 7394 49Q7344 101 7313 176Q7283 252 7283 348Q7283 445 7310 528Q7337 612 7381 673Q7425 734 7481 768Q7537 803 7596 803Q7639 803 7673 788Q7708 773 7732 745Q7756 718 7768 680Q7781 642 7781 596ZM7451 354Q7451 345 7452 336Q7453 327 7453 317Q7491 335 7522 363Q7553 391 7575 427Q7597 463 7609 505Q7621 548 7621 594Q7621 628 7609 647Q7598 666 7578 666Q7553 666 7533 649Q7514 632 7499 604Q7485 577 7475 542Q7466 508 7460 473Q7454 438 7452 406Q7450 375 7451 354Z" fill="#ffffff" style=""></path></g></g></g></svg>